<?xml version="1.0" encoding="UTF-8"?>
<!-- Created with Inkscape (http://www.inkscape.org/) -->
<svg width="60" height="60" version="1.1" viewBox="0 0 15.875 15.875" xml:space="preserve" xmlns="http://www.w3.org/2000/svg"><g transform="translate(-120)"><g transform="matrix(.26458 0 0 .26458 88.249 -9.8687)" stroke-linecap="round" stroke-linejoin="round"><path d="m125.92 76.46c0.52181-5.7533 2.3738-11.262 8.8354-15.96 1.1815-0.85906 1.6379-2.5006 0.93821-3.7834l-0.24626-0.45147c-0.69972-1.2828-2.2039-1.5964-3.3049-0.63583-6.1726 5.3855-10.5 11.987-10.108 21.912 0.0341 0.86213 0.79795 1.5591 1.6608 1.5591 1.1418 0 2.0927-1.1857 2.2247-2.6408z" stroke-width=".56457"/><path d="m138.1 55.017 0.26538 0.55489c0.63047 1.3182 2.2803 2.0546 3.7097 1.7521 4.5319-0.9591 9.2751-0.96299 14.91 2.3549 1.2588 0.74115 2.8364 0.43796 3.6036-0.80573l2.319-3.7595c0.76713-1.2437 0.32121-2.767-1.0292-3.3249-7.2179-2.9825-14.646-3.9876-22.567-0.36539-1.3285 0.60753-1.8426 2.2754-1.2121 3.5936z" stroke-width=".56457"/><path transform="matrix(1 0 0 1 .11566 2.7412)" d="m169.75 76.357h5.4425c1.4612 0 2.7047-1.1852 2.6534-2.6452-0.30619-8.7213-3.9386-15.113-9.5679-20.19-1.0849-0.97851-2.623-0.68268-3.3629 0.57741l-2.263 3.8542c-0.73987 1.2601-0.50426 3.1287 0.37449 4.2951 2.2668 3.009 3.7661 6.6728 4.046 11.464 0.0852 1.4583 1.2163 2.6448 2.6775 2.6448z" stroke-width=".56455"/><circle cx="146.52" cy="78.888" r="6.6076" stroke-width=".56457"/><rect transform="rotate(156.07)" x="-128.41" y="-133.82" width="28.343" height="4.1732" stroke-width="1.7977"/></g></g></svg>
